<?xml version="1.0" encoding="utf-8"?>
<!-- Generator: Adobe Illustrator 26.3.1, SVG Export Plug-In . SVG Version: 6.00 Build 0)  -->
<svg version="1.1" id="Layer_1" xmlns="http://www.w3.org/2000/svg" xmlns:xlink="http://www.w3.org/1999/xlink" x="0px" y="0px"
	 viewBox="0 0 340 283" style="enable-background:new 0 0 340 283;" xml:space="preserve">
<style type="text/css">
	
		.st0{clip-path:url(#SVGID_00000152258663022106864860000016798005133446542488_);fill:none;stroke:#EBEBEB;stroke-width:0.53;stroke-linejoin:round;stroke-miterlimit:10;}
	
		.st1{clip-path:url(#SVGID_00000152258663022106864860000016798005133446542488_);fill:none;stroke:#EBEBEB;stroke-width:1.07;stroke-linejoin:round;stroke-miterlimit:10;}
	.st2{clip-path:url(#SVGID_00000152258663022106864860000016798005133446542488_);}
	.st3{opacity:0.502;fill:#7223F0;}
	.st4{opacity:0.502;fill:none;stroke:#000000;stroke-width:0.71;stroke-linecap:round;stroke-linejoin:round;stroke-miterlimit:10;}
	.st5{opacity:0.502;fill:#6F0641;}
	.st6{clip-path:url(#SVGID_00000152258663022106864860000016798005133446542488_);fill:#6F0641;}
	
		.st7{clip-path:url(#SVGID_00000152258663022106864860000016798005133446542488_);fill:none;stroke:#000000;stroke-width:0.71;stroke-linecap:round;stroke-linejoin:round;stroke-miterlimit:10;}
	.st8{clip-path:url(#SVGID_00000152258663022106864860000016798005133446542488_);fill:#7223F0;}
	
		.st9{clip-path:url(#SVGID_00000152258663022106864860000016798005133446542488_);fill:none;stroke:#0000FF;stroke-width:1.07;stroke-linejoin:round;stroke-miterlimit:10;}
	.st10{fill:#0000FF;}
	.st11{font-family:'Helvetica';}
	.st12{font-size:11px;}
	.st13{fill:#4D4D4D;}
	.st14{font-size:6px;}
	.st15{font-size:10px;}
	.st16{letter-spacing:-1;}
	.st17{fill:#6F0641;}
	.st18{fill:none;stroke:#000000;stroke-width:0.71;stroke-linecap:round;stroke-linejoin:round;stroke-miterlimit:10;}
	.st19{fill:#7223F0;}
	.st20{font-size:12px;}
</style>
<g>
	<defs>
		<rect id="SVGID_1_" x="8.69" y="-0.46" width="322.78" height="283.46"/>
	</defs>
	<clipPath id="SVGID_00000140006404490289781870000001117864333363653808_">
		<use xlink:href="#SVGID_1_"  style="overflow:visible;"/>
	</clipPath>
</g>
<g>
	<defs>
		<rect id="SVGID_00000072241920323761536900000004095901988927505543_" x="38.06" y="21.75" width="233.08" height="233.09"/>
	</defs>
	<clipPath id="SVGID_00000005948762674480632630000012708751283822779583_">
		<use xlink:href="#SVGID_00000072241920323761536900000004095901988927505543_"  style="overflow:visible;"/>
	</clipPath>
	
		<line style="clip-path:url(#SVGID_00000005948762674480632630000012708751283822779583_);fill:none;stroke:#EBEBEB;stroke-width:0.53;stroke-linejoin:round;stroke-miterlimit:10;" x1="38.06" y1="223.51" x2="271.14" y2="223.51"/>
	
		<line style="clip-path:url(#SVGID_00000005948762674480632630000012708751283822779583_);fill:none;stroke:#EBEBEB;stroke-width:0.53;stroke-linejoin:round;stroke-miterlimit:10;" x1="38.06" y1="152.03" x2="271.14" y2="152.03"/>
	
		<line style="clip-path:url(#SVGID_00000005948762674480632630000012708751283822779583_);fill:none;stroke:#EBEBEB;stroke-width:0.53;stroke-linejoin:round;stroke-miterlimit:10;" x1="38.06" y1="80.56" x2="271.14" y2="80.56"/>
	
		<line style="clip-path:url(#SVGID_00000005948762674480632630000012708751283822779583_);fill:none;stroke:#EBEBEB;stroke-width:0.53;stroke-linejoin:round;stroke-miterlimit:10;" x1="38.54" y1="254.84" x2="38.54" y2="21.75"/>
	
		<line style="clip-path:url(#SVGID_00000005948762674480632630000012708751283822779583_);fill:none;stroke:#EBEBEB;stroke-width:0.53;stroke-linejoin:round;stroke-miterlimit:10;" x1="74.27" y1="254.84" x2="74.27" y2="21.75"/>
	
		<line style="clip-path:url(#SVGID_00000005948762674480632630000012708751283822779583_);fill:none;stroke:#EBEBEB;stroke-width:0.53;stroke-linejoin:round;stroke-miterlimit:10;" x1="110.01" y1="254.84" x2="110.01" y2="21.75"/>
	
		<line style="clip-path:url(#SVGID_00000005948762674480632630000012708751283822779583_);fill:none;stroke:#EBEBEB;stroke-width:0.53;stroke-linejoin:round;stroke-miterlimit:10;" x1="145.75" y1="254.84" x2="145.75" y2="21.75"/>
	
		<line style="clip-path:url(#SVGID_00000005948762674480632630000012708751283822779583_);fill:none;stroke:#EBEBEB;stroke-width:0.53;stroke-linejoin:round;stroke-miterlimit:10;" x1="181.49" y1="254.84" x2="181.49" y2="21.75"/>
	
		<line style="clip-path:url(#SVGID_00000005948762674480632630000012708751283822779583_);fill:none;stroke:#EBEBEB;stroke-width:0.53;stroke-linejoin:round;stroke-miterlimit:10;" x1="217.23" y1="254.84" x2="217.23" y2="21.75"/>
	
		<line style="clip-path:url(#SVGID_00000005948762674480632630000012708751283822779583_);fill:none;stroke:#EBEBEB;stroke-width:0.53;stroke-linejoin:round;stroke-miterlimit:10;" x1="252.97" y1="254.84" x2="252.97" y2="21.75"/>
	
		<line style="clip-path:url(#SVGID_00000005948762674480632630000012708751283822779583_);fill:none;stroke:#EBEBEB;stroke-width:1.07;stroke-linejoin:round;stroke-miterlimit:10;" x1="38.06" y1="187.77" x2="271.14" y2="187.77"/>
	
		<line style="clip-path:url(#SVGID_00000005948762674480632630000012708751283822779583_);fill:none;stroke:#EBEBEB;stroke-width:1.07;stroke-linejoin:round;stroke-miterlimit:10;" x1="38.06" y1="116.3" x2="271.14" y2="116.3"/>
	
		<line style="clip-path:url(#SVGID_00000005948762674480632630000012708751283822779583_);fill:none;stroke:#EBEBEB;stroke-width:1.07;stroke-linejoin:round;stroke-miterlimit:10;" x1="38.06" y1="44.82" x2="271.14" y2="44.82"/>
	
		<line style="clip-path:url(#SVGID_00000005948762674480632630000012708751283822779583_);fill:none;stroke:#EBEBEB;stroke-width:1.07;stroke-linejoin:round;stroke-miterlimit:10;" x1="56.41" y1="254.84" x2="56.41" y2="21.75"/>
	
		<line style="clip-path:url(#SVGID_00000005948762674480632630000012708751283822779583_);fill:none;stroke:#EBEBEB;stroke-width:1.07;stroke-linejoin:round;stroke-miterlimit:10;" x1="92.14" y1="254.84" x2="92.14" y2="21.75"/>
	
		<line style="clip-path:url(#SVGID_00000005948762674480632630000012708751283822779583_);fill:none;stroke:#EBEBEB;stroke-width:1.07;stroke-linejoin:round;stroke-miterlimit:10;" x1="127.88" y1="254.84" x2="127.88" y2="21.75"/>
	
		<line style="clip-path:url(#SVGID_00000005948762674480632630000012708751283822779583_);fill:none;stroke:#EBEBEB;stroke-width:1.07;stroke-linejoin:round;stroke-miterlimit:10;" x1="163.62" y1="254.84" x2="163.62" y2="21.75"/>
	
		<line style="clip-path:url(#SVGID_00000005948762674480632630000012708751283822779583_);fill:none;stroke:#EBEBEB;stroke-width:1.07;stroke-linejoin:round;stroke-miterlimit:10;" x1="199.36" y1="254.84" x2="199.36" y2="21.75"/>
	
		<line style="clip-path:url(#SVGID_00000005948762674480632630000012708751283822779583_);fill:none;stroke:#EBEBEB;stroke-width:1.07;stroke-linejoin:round;stroke-miterlimit:10;" x1="235.1" y1="254.84" x2="235.1" y2="21.75"/>
	
		<line style="clip-path:url(#SVGID_00000005948762674480632630000012708751283822779583_);fill:none;stroke:#EBEBEB;stroke-width:1.07;stroke-linejoin:round;stroke-miterlimit:10;" x1="270.84" y1="254.84" x2="270.84" y2="21.75"/>
	<g style="clip-path:url(#SVGID_00000005948762674480632630000012708751283822779583_);">
		<path class="st3" d="M158.42,68.44c0-1.37,1.12-2.49,2.48-2.49c1.37,0,2.49,1.12,2.49,2.49s-1.12,2.49-2.49,2.49
			C159.54,70.93,158.42,69.81,158.42,68.44"/>
		<path class="st4" d="M158.42,68.44c0-1.37,1.12-2.49,2.48-2.49c1.37,0,2.49,1.12,2.49,2.49s-1.12,2.49-2.49,2.49
			C159.54,70.93,158.42,69.81,158.42,68.44"/>
	</g>
	<g style="clip-path:url(#SVGID_00000005948762674480632630000012708751283822779583_);">
		<path class="st3" d="M146.52,125.84c0-1.36,1.12-2.48,2.49-2.48c1.37,0,2.49,1.12,2.49,2.48c0,1.37-1.12,2.49-2.49,2.49
			C147.64,128.33,146.52,127.21,146.52,125.84"/>
		<path class="st4" d="M146.52,125.84c0-1.36,1.12-2.48,2.49-2.48c1.37,0,2.49,1.12,2.49,2.48c0,1.37-1.12,2.49-2.49,2.49
			C147.64,128.33,146.52,127.21,146.52,125.84"/>
	</g>
	<g style="clip-path:url(#SVGID_00000005948762674480632630000012708751283822779583_);">
		<path class="st5" d="M158.31,73.46c0-1.37,1.12-2.48,2.49-2.48c1.37,0,2.49,1.11,2.49,2.48c0,1.37-1.12,2.49-2.49,2.49
			C159.43,75.95,158.31,74.83,158.31,73.46"/>
		<path class="st4" d="M158.31,73.46c0-1.37,1.12-2.48,2.49-2.48c1.37,0,2.49,1.11,2.49,2.48c0,1.37-1.12,2.49-2.49,2.49
			C159.43,75.95,158.31,74.83,158.31,73.46"/>
	</g>
	<g style="clip-path:url(#SVGID_00000005948762674480632630000012708751283822779583_);">
		<path class="st5" d="M189.71,87.06c0-1.37,1.12-2.49,2.49-2.49c1.37,0,2.49,1.12,2.49,2.49s-1.12,2.48-2.49,2.48
			C190.83,89.54,189.71,88.43,189.71,87.06"/>
		<path class="st4" d="M189.71,87.06c0-1.37,1.12-2.49,2.49-2.49c1.37,0,2.49,1.12,2.49,2.49s-1.12,2.48-2.49,2.48
			C190.83,89.54,189.71,88.43,189.71,87.06"/>
	</g>
	<g style="clip-path:url(#SVGID_00000005948762674480632630000012708751283822779583_);">
		<path class="st5" d="M102.33,87.82c0-1.37,1.12-2.49,2.49-2.49c1.36,0,2.48,1.12,2.48,2.49c0,1.37-1.12,2.49-2.48,2.49
			C103.45,90.31,102.33,89.19,102.33,87.82"/>
		<path class="st4" d="M102.33,87.82c0-1.37,1.12-2.49,2.49-2.49c1.36,0,2.48,1.12,2.48,2.49c0,1.37-1.12,2.49-2.48,2.49
			C103.45,90.31,102.33,89.19,102.33,87.82"/>
	</g>
	<g style="clip-path:url(#SVGID_00000005948762674480632630000012708751283822779583_);">
		<path class="st3" d="M153.32,63.4c0-1.37,1.12-2.49,2.49-2.49s2.49,1.12,2.49,2.49c0,1.36-1.12,2.48-2.49,2.48
			S153.32,64.76,153.32,63.4"/>
		<path class="st4" d="M153.32,63.4c0-1.37,1.12-2.49,2.49-2.49s2.49,1.12,2.49,2.49c0,1.36-1.12,2.48-2.49,2.48
			S153.32,64.76,153.32,63.4"/>
	</g>
	<g style="clip-path:url(#SVGID_00000005948762674480632630000012708751283822779583_);">
		<path class="st3" d="M157.47,63.79c0-1.37,1.12-2.49,2.49-2.49c1.37,0,2.49,1.12,2.49,2.49c0,1.36-1.12,2.48-2.49,2.48
			C158.59,66.27,157.47,65.15,157.47,63.79"/>
		<path class="st4" d="M157.47,63.79c0-1.37,1.12-2.49,2.49-2.49c1.37,0,2.49,1.12,2.49,2.49c0,1.36-1.12,2.48-2.49,2.48
			C158.59,66.27,157.47,65.15,157.47,63.79"/>
	</g>
	<g style="clip-path:url(#SVGID_00000005948762674480632630000012708751283822779583_);">
		<path class="st3" d="M172.56,33.51c0-1.37,1.12-2.49,2.49-2.49c1.37,0,2.49,1.12,2.49,2.49c0,1.37-1.12,2.49-2.49,2.49
			C173.68,36,172.56,34.88,172.56,33.51"/>
		<path class="st4" d="M172.56,33.51c0-1.37,1.12-2.49,2.49-2.49c1.37,0,2.49,1.12,2.49,2.49c0,1.37-1.12,2.49-2.49,2.49
			C173.68,36,172.56,34.88,172.56,33.51"/>
	</g>
	<g style="clip-path:url(#SVGID_00000005948762674480632630000012708751283822779583_);">
		<path class="st3" d="M67.22,86.16c0-1.37,1.12-2.49,2.49-2.49s2.49,1.12,2.49,2.49c0,1.37-1.12,2.49-2.49,2.49
			S67.22,87.53,67.22,86.16"/>
		<path class="st4" d="M67.22,86.16c0-1.37,1.12-2.49,2.49-2.49s2.49,1.12,2.49,2.49c0,1.37-1.12,2.49-2.49,2.49
			S67.22,87.53,67.22,86.16"/>
	</g>
	<g style="clip-path:url(#SVGID_00000005948762674480632630000012708751283822779583_);">
		<path class="st5" d="M144.76,73.92c0-1.37,1.12-2.48,2.48-2.48c1.37,0,2.49,1.11,2.49,2.48s-1.12,2.49-2.49,2.49
			C145.88,76.41,144.76,75.29,144.76,73.92"/>
		<path class="st4" d="M144.76,73.92c0-1.37,1.12-2.48,2.48-2.48c1.37,0,2.49,1.11,2.49,2.48s-1.12,2.49-2.49,2.49
			C145.88,76.41,144.76,75.29,144.76,73.92"/>
	</g>
	<g style="clip-path:url(#SVGID_00000005948762674480632630000012708751283822779583_);">
		<path class="st5" d="M202.03,128.96c0-1.37,1.12-2.49,2.49-2.49c1.36,0,2.48,1.12,2.48,2.49c0,1.37-1.12,2.49-2.48,2.49
			C203.15,131.45,202.03,130.33,202.03,128.96"/>
		<path class="st4" d="M202.03,128.96c0-1.37,1.12-2.49,2.49-2.49c1.36,0,2.48,1.12,2.48,2.49c0,1.37-1.12,2.49-2.48,2.49
			C203.15,131.45,202.03,130.33,202.03,128.96"/>
	</g>
	<g style="clip-path:url(#SVGID_00000005948762674480632630000012708751283822779583_);">
		<path class="st5" d="M197.82,118c0-1.36,1.12-2.48,2.49-2.48c1.36,0,2.48,1.12,2.48,2.48c0,1.37-1.12,2.49-2.48,2.49
			C198.94,120.49,197.82,119.37,197.82,118"/>
		<path class="st4" d="M197.82,118c0-1.36,1.12-2.48,2.49-2.48c1.36,0,2.48,1.12,2.48,2.48c0,1.37-1.12,2.49-2.48,2.49
			C198.94,120.49,197.82,119.37,197.82,118"/>
	</g>
	<g style="clip-path:url(#SVGID_00000005948762674480632630000012708751283822779583_);">
		<path class="st3" d="M184.01,100.87c0-1.37,1.12-2.49,2.48-2.49c1.37,0,2.49,1.12,2.49,2.49c0,1.37-1.12,2.49-2.49,2.49
			C185.13,103.36,184.01,102.24,184.01,100.87"/>
		<path class="st4" d="M184.01,100.87c0-1.37,1.12-2.49,2.48-2.49c1.37,0,2.49,1.12,2.49,2.49c0,1.37-1.12,2.49-2.49,2.49
			C185.13,103.36,184.01,102.24,184.01,100.87"/>
	</g>
	<g style="clip-path:url(#SVGID_00000005948762674480632630000012708751283822779583_);">
		<path class="st3" d="M109.87,82.74c0-1.36,1.12-2.48,2.49-2.48s2.49,1.12,2.49,2.48c0,1.37-1.12,2.49-2.49,2.49
			S109.87,84.11,109.87,82.74"/>
		<path class="st4" d="M109.87,82.74c0-1.36,1.12-2.48,2.49-2.48s2.49,1.12,2.49,2.48c0,1.37-1.12,2.49-2.49,2.49
			S109.87,84.11,109.87,82.74"/>
	</g>
	<g style="clip-path:url(#SVGID_00000005948762674480632630000012708751283822779583_);">
		<path class="st3" d="M184.35,123.6c0-1.37,1.12-2.49,2.49-2.49c1.37,0,2.49,1.12,2.49,2.49c0,1.37-1.12,2.49-2.49,2.49
			C185.47,126.09,184.35,124.97,184.35,123.6"/>
		<path class="st4" d="M184.35,123.6c0-1.37,1.12-2.49,2.49-2.49c1.37,0,2.49,1.12,2.49,2.49c0,1.37-1.12,2.49-2.49,2.49
			C185.47,126.09,184.35,124.97,184.35,123.6"/>
	</g>
	<g style="clip-path:url(#SVGID_00000005948762674480632630000012708751283822779583_);">
		<path class="st3" d="M168.93,108.32c0-1.37,1.12-2.49,2.49-2.49s2.49,1.12,2.49,2.49c0,1.36-1.12,2.48-2.49,2.48
			S168.93,109.68,168.93,108.32"/>
		<path class="st4" d="M168.93,108.32c0-1.37,1.12-2.49,2.49-2.49s2.49,1.12,2.49,2.49c0,1.36-1.12,2.48-2.49,2.48
			S168.93,109.68,168.93,108.32"/>
	</g>
	<g style="clip-path:url(#SVGID_00000005948762674480632630000012708751283822779583_);">
		<path class="st3" d="M178.04,91c0-1.36,1.12-2.48,2.48-2.48c1.37,0,2.49,1.12,2.49,2.48c0,1.37-1.12,2.49-2.49,2.49
			C179.16,93.49,178.04,92.37,178.04,91"/>
		<path class="st4" d="M178.04,91c0-1.36,1.12-2.48,2.48-2.48c1.37,0,2.49,1.12,2.49,2.48c0,1.37-1.12,2.49-2.49,2.49
			C179.16,93.49,178.04,92.37,178.04,91"/>
	</g>
	<g style="clip-path:url(#SVGID_00000005948762674480632630000012708751283822779583_);">
		<path class="st3" d="M153.79,136.11c0-1.37,1.12-2.49,2.49-2.49s2.49,1.12,2.49,2.49s-1.12,2.49-2.49,2.49
			S153.79,137.48,153.79,136.11"/>
		<path class="st4" d="M153.79,136.11c0-1.37,1.12-2.49,2.49-2.49s2.49,1.12,2.49,2.49s-1.12,2.49-2.49,2.49
			S153.79,137.48,153.79,136.11"/>
	</g>
	<g style="clip-path:url(#SVGID_00000005948762674480632630000012708751283822779583_);">
		<path class="st5" d="M184.77,70.64c0-1.37,1.12-2.49,2.49-2.49c1.37,0,2.49,1.12,2.49,2.49s-1.12,2.49-2.49,2.49
			C185.89,73.13,184.77,72.01,184.77,70.64"/>
		<path class="st4" d="M184.77,70.64c0-1.37,1.12-2.49,2.49-2.49c1.37,0,2.49,1.12,2.49,2.49s-1.12,2.49-2.49,2.49
			C185.89,73.13,184.77,72.01,184.77,70.64"/>
	</g>
	<g style="clip-path:url(#SVGID_00000005948762674480632630000012708751283822779583_);">
		<path class="st3" d="M117.75,110.93c0-1.37,1.12-2.49,2.49-2.49c1.37,0,2.49,1.12,2.49,2.49c0,1.36-1.12,2.48-2.49,2.48
			C118.87,113.41,117.75,112.29,117.75,110.93"/>
		<path class="st4" d="M117.75,110.93c0-1.37,1.12-2.49,2.49-2.49c1.37,0,2.49,1.12,2.49,2.49c0,1.36-1.12,2.48-2.49,2.48
			C118.87,113.41,117.75,112.29,117.75,110.93"/>
	</g>
	<g style="clip-path:url(#SVGID_00000005948762674480632630000012708751283822779583_);">
		<path class="st3" d="M135.97,101.61c0-1.36,1.12-2.48,2.49-2.48c1.37,0,2.49,1.12,2.49,2.48c0,1.37-1.12,2.49-2.49,2.49
			C137.09,104.1,135.97,102.98,135.97,101.61"/>
		<path class="st4" d="M135.97,101.61c0-1.36,1.12-2.48,2.49-2.48c1.37,0,2.49,1.12,2.49,2.48c0,1.37-1.12,2.49-2.49,2.49
			C137.09,104.1,135.97,102.98,135.97,101.61"/>
	</g>
	<g style="clip-path:url(#SVGID_00000005948762674480632630000012708751283822779583_);">
		<path class="st5" d="M223.84,100.93c0-1.37,1.12-2.49,2.48-2.49c1.37,0,2.49,1.12,2.49,2.49c0,1.36-1.12,2.48-2.49,2.48
			C224.96,103.41,223.84,102.29,223.84,100.93"/>
		<path class="st4" d="M223.84,100.93c0-1.37,1.12-2.49,2.48-2.49c1.37,0,2.49,1.12,2.49,2.49c0,1.36-1.12,2.48-2.49,2.48
			C224.96,103.41,223.84,102.29,223.84,100.93"/>
	</g>
	<g style="clip-path:url(#SVGID_00000005948762674480632630000012708751283822779583_);">
		<path class="st3" d="M170.16,88.95c0-1.36,1.12-2.48,2.48-2.48c1.37,0,2.49,1.12,2.49,2.48c0,1.37-1.12,2.49-2.49,2.49
			C171.28,91.44,170.16,90.32,170.16,88.95"/>
		<path class="st4" d="M170.16,88.95c0-1.36,1.12-2.48,2.48-2.48c1.37,0,2.49,1.12,2.49,2.48c0,1.37-1.12,2.49-2.49,2.49
			C171.28,91.44,170.16,90.32,170.16,88.95"/>
	</g>
	<g style="clip-path:url(#SVGID_00000005948762674480632630000012708751283822779583_);">
		<path class="st5" d="M177.46,101.35c0-1.37,1.12-2.49,2.48-2.49c1.37,0,2.49,1.12,2.49,2.49c0,1.37-1.12,2.49-2.49,2.49
			C178.58,103.84,177.46,102.72,177.46,101.35"/>
		<path class="st4" d="M177.46,101.35c0-1.37,1.12-2.49,2.48-2.49c1.37,0,2.49,1.12,2.49,2.49c0,1.37-1.12,2.49-2.49,2.49
			C178.58,103.84,177.46,102.72,177.46,101.35"/>
	</g>
	<g style="clip-path:url(#SVGID_00000005948762674480632630000012708751283822779583_);">
		<path class="st5" d="M190.79,112.57c0-1.36,1.12-2.48,2.49-2.48s2.49,1.12,2.49,2.48c0,1.37-1.12,2.49-2.49,2.49
			S190.79,113.94,190.79,112.57"/>
		<path class="st4" d="M190.79,112.57c0-1.36,1.12-2.48,2.49-2.48s2.49,1.12,2.49,2.48c0,1.37-1.12,2.49-2.49,2.49
			S190.79,113.94,190.79,112.57"/>
	</g>
	<g style="clip-path:url(#SVGID_00000005948762674480632630000012708751283822779583_);">
		<path class="st3" d="M51.02,114.11c0-1.37,1.12-2.49,2.49-2.49c1.37,0,2.48,1.12,2.48,2.49s-1.11,2.49-2.48,2.49
			C52.14,116.6,51.02,115.48,51.02,114.11"/>
		<path class="st4" d="M51.02,114.11c0-1.37,1.12-2.49,2.49-2.49c1.37,0,2.48,1.12,2.48,2.49s-1.11,2.49-2.48,2.49
			C52.14,116.6,51.02,115.48,51.02,114.11"/>
	</g>
	<g style="clip-path:url(#SVGID_00000005948762674480632630000012708751283822779583_);">
		<path class="st3" d="M84.35,126.06c0-1.37,1.12-2.49,2.49-2.49c1.37,0,2.49,1.12,2.49,2.49s-1.12,2.49-2.49,2.49
			C85.47,128.55,84.35,127.43,84.35,126.06"/>
		<path class="st4" d="M84.35,126.06c0-1.37,1.12-2.49,2.49-2.49c1.37,0,2.49,1.12,2.49,2.49s-1.12,2.49-2.49,2.49
			C85.47,128.55,84.35,127.43,84.35,126.06"/>
	</g>
	<g style="clip-path:url(#SVGID_00000005948762674480632630000012708751283822779583_);">
		<path class="st3" d="M166.22,76.77c0-1.37,1.12-2.48,2.48-2.48c1.37,0,2.49,1.11,2.49,2.48c0,1.37-1.12,2.49-2.49,2.49
			C167.34,79.26,166.22,78.14,166.22,76.77"/>
		<path class="st4" d="M166.22,76.77c0-1.37,1.12-2.48,2.48-2.48c1.37,0,2.49,1.11,2.49,2.48c0,1.37-1.12,2.49-2.49,2.49
			C167.34,79.26,166.22,78.14,166.22,76.77"/>
	</g>
	<g style="clip-path:url(#SVGID_00000005948762674480632630000012708751283822779583_);">
		<path class="st3" d="M151.14,121.3c0-1.37,1.12-2.49,2.49-2.49c1.37,0,2.49,1.12,2.49,2.49c0,1.37-1.12,2.49-2.49,2.49
			C152.26,123.79,151.14,122.67,151.14,121.3"/>
		<path class="st4" d="M151.14,121.3c0-1.37,1.12-2.49,2.49-2.49c1.37,0,2.49,1.12,2.49,2.49c0,1.37-1.12,2.49-2.49,2.49
			C152.26,123.79,151.14,122.67,151.14,121.3"/>
	</g>
	<g style="clip-path:url(#SVGID_00000005948762674480632630000012708751283822779583_);">
		<path class="st3" d="M231.8,32.35c0-1.37,1.12-2.49,2.49-2.49c1.37,0,2.49,1.12,2.49,2.49c0,1.36-1.12,2.48-2.49,2.48
			C232.92,34.83,231.8,33.71,231.8,32.35"/>
		<path class="st4" d="M231.8,32.35c0-1.37,1.12-2.49,2.49-2.49c1.37,0,2.49,1.12,2.49,2.49c0,1.36-1.12,2.48-2.49,2.48
			C232.92,34.83,231.8,33.71,231.8,32.35"/>
	</g>
	<g style="clip-path:url(#SVGID_00000005948762674480632630000012708751283822779583_);">
		<path class="st5" d="M192.77,179.76c0-1.37,1.12-2.49,2.48-2.49c1.37,0,2.49,1.12,2.49,2.49c0,1.37-1.12,2.49-2.49,2.49
			C193.89,182.25,192.77,181.13,192.77,179.76"/>
		<path class="st4" d="M192.77,179.76c0-1.37,1.12-2.49,2.48-2.49c1.37,0,2.49,1.12,2.49,2.49c0,1.37-1.12,2.49-2.49,2.49
			C193.89,182.25,192.77,181.13,192.77,179.76"/>
	</g>
	<g style="clip-path:url(#SVGID_00000005948762674480632630000012708751283822779583_);">
		<path class="st3" d="M177.7,92.26c0-1.37,1.12-2.49,2.49-2.49s2.49,1.12,2.49,2.49c0,1.37-1.12,2.49-2.49,2.49
			S177.7,93.63,177.7,92.26"/>
		<path class="st4" d="M177.7,92.26c0-1.37,1.12-2.49,2.49-2.49s2.49,1.12,2.49,2.49c0,1.37-1.12,2.49-2.49,2.49
			S177.7,93.63,177.7,92.26"/>
	</g>
	<g style="clip-path:url(#SVGID_00000005948762674480632630000012708751283822779583_);">
		<path class="st3" d="M124.1,148.18c0-1.36,1.12-2.48,2.49-2.48c1.37,0,2.49,1.12,2.49,2.48c0,1.37-1.12,2.49-2.49,2.49
			C125.22,150.67,124.1,149.55,124.1,148.18"/>
		<path class="st4" d="M124.1,148.18c0-1.36,1.12-2.48,2.49-2.48c1.37,0,2.49,1.12,2.49,2.48c0,1.37-1.12,2.49-2.49,2.49
			C125.22,150.67,124.1,149.55,124.1,148.18"/>
	</g>
	<g style="clip-path:url(#SVGID_00000005948762674480632630000012708751283822779583_);">
		<path class="st3" d="M46.16,105.54c0-1.37,1.12-2.49,2.49-2.49c1.37,0,2.49,1.12,2.49,2.49c0,1.37-1.12,2.48-2.49,2.48
			C47.28,108.02,46.16,106.91,46.16,105.54"/>
		<path class="st4" d="M46.16,105.54c0-1.37,1.12-2.49,2.49-2.49c1.37,0,2.49,1.12,2.49,2.49c0,1.37-1.12,2.48-2.49,2.48
			C47.28,108.02,46.16,106.91,46.16,105.54"/>
	</g>
	<g style="clip-path:url(#SVGID_00000005948762674480632630000012708751283822779583_);">
		<path class="st3" d="M203.54,61.69c0-1.37,1.12-2.49,2.49-2.49s2.49,1.12,2.49,2.49s-1.12,2.49-2.49,2.49
			S203.54,63.06,203.54,61.69"/>
		<path class="st4" d="M203.54,61.69c0-1.37,1.12-2.49,2.49-2.49s2.49,1.12,2.49,2.49s-1.12,2.49-2.49,2.49
			S203.54,63.06,203.54,61.69"/>
	</g>
	<g style="clip-path:url(#SVGID_00000005948762674480632630000012708751283822779583_);">
		<path class="st5" d="M183.5,122.74c0-1.37,1.12-2.49,2.49-2.49c1.37,0,2.49,1.12,2.49,2.49c0,1.37-1.12,2.49-2.49,2.49
			C184.62,125.23,183.5,124.11,183.5,122.74"/>
		<path class="st4" d="M183.5,122.74c0-1.37,1.12-2.49,2.49-2.49c1.37,0,2.49,1.12,2.49,2.49c0,1.37-1.12,2.49-2.49,2.49
			C184.62,125.23,183.5,124.11,183.5,122.74"/>
	</g>
	<g style="clip-path:url(#SVGID_00000005948762674480632630000012708751283822779583_);">
		<path class="st3" d="M89.8,171.1c0-1.37,1.12-2.49,2.49-2.49s2.49,1.12,2.49,2.49s-1.12,2.49-2.49,2.49S89.8,172.47,89.8,171.1"/>
		<path class="st4" d="M89.8,171.1c0-1.37,1.12-2.49,2.49-2.49s2.49,1.12,2.49,2.49s-1.12,2.49-2.49,2.49S89.8,172.47,89.8,171.1"/>
	</g>
	<g style="clip-path:url(#SVGID_00000005948762674480632630000012708751283822779583_);">
		<path class="st3" d="M158.29,206.71c0-1.37,1.12-2.49,2.49-2.49s2.49,1.12,2.49,2.49c0,1.36-1.12,2.48-2.49,2.48
			S158.29,208.07,158.29,206.71"/>
		<path class="st4" d="M158.29,206.71c0-1.37,1.12-2.49,2.49-2.49s2.49,1.12,2.49,2.49c0,1.36-1.12,2.48-2.49,2.48
			S158.29,208.07,158.29,206.71"/>
	</g>
	<g style="clip-path:url(#SVGID_00000005948762674480632630000012708751283822779583_);">
		<path class="st5" d="M168.78,99.41c0-1.37,1.12-2.49,2.49-2.49c1.37,0,2.49,1.12,2.49,2.49c0,1.37-1.12,2.49-2.49,2.49
			C169.9,101.9,168.78,100.78,168.78,99.41"/>
		<path class="st4" d="M168.78,99.41c0-1.37,1.12-2.49,2.49-2.49c1.37,0,2.49,1.12,2.49,2.49c0,1.37-1.12,2.49-2.49,2.49
			C169.9,101.9,168.78,100.78,168.78,99.41"/>
	</g>
	<g style="clip-path:url(#SVGID_00000005948762674480632630000012708751283822779583_);">
		<path class="st3" d="M87.58,129.01c0-1.37,1.12-2.49,2.49-2.49s2.49,1.12,2.49,2.49c0,1.37-1.12,2.49-2.49,2.49
			S87.58,130.38,87.58,129.01"/>
		<path class="st4" d="M87.58,129.01c0-1.37,1.12-2.49,2.49-2.49s2.49,1.12,2.49,2.49c0,1.37-1.12,2.49-2.49,2.49
			S87.58,130.38,87.58,129.01"/>
	</g>
	<g style="clip-path:url(#SVGID_00000005948762674480632630000012708751283822779583_);">
		<path class="st3" d="M112.26,158.11c0-1.37,1.12-2.49,2.48-2.49c1.37,0,2.49,1.12,2.49,2.49c0,1.36-1.12,2.48-2.49,2.48
			C113.38,160.59,112.26,159.47,112.26,158.11"/>
		<path class="st4" d="M112.26,158.11c0-1.37,1.12-2.49,2.48-2.49c1.37,0,2.49,1.12,2.49,2.49c0,1.36-1.12,2.48-2.49,2.48
			C113.38,160.59,112.26,159.47,112.26,158.11"/>
	</g>
	<g style="clip-path:url(#SVGID_00000005948762674480632630000012708751283822779583_);">
		<path class="st5" d="M152.46,91.03c0-1.37,1.12-2.49,2.49-2.49c1.37,0,2.49,1.12,2.49,2.49s-1.12,2.49-2.49,2.49
			C153.58,93.52,152.46,92.4,152.46,91.03"/>
		<path class="st4" d="M152.46,91.03c0-1.37,1.12-2.49,2.49-2.49c1.37,0,2.49,1.12,2.49,2.49s-1.12,2.49-2.49,2.49
			C153.58,93.52,152.46,92.4,152.46,91.03"/>
	</g>
	<g style="clip-path:url(#SVGID_00000005948762674480632630000012708751283822779583_);">
		<path class="st5" d="M183.92,95.68c0-1.37,1.12-2.49,2.49-2.49c1.36,0,2.48,1.12,2.48,2.49c0,1.36-1.12,2.48-2.48,2.48
			C185.04,98.16,183.92,97.04,183.92,95.68"/>
		<path class="st4" d="M183.92,95.68c0-1.37,1.12-2.49,2.49-2.49c1.36,0,2.48,1.12,2.48,2.49c0,1.36-1.12,2.48-2.48,2.48
			C185.04,98.16,183.92,97.04,183.92,95.68"/>
	</g>
	<g style="clip-path:url(#SVGID_00000005948762674480632630000012708751283822779583_);">
		<path class="st5" d="M229.32,165.53c0-1.37,1.12-2.49,2.48-2.49c1.37,0,2.49,1.12,2.49,2.49s-1.12,2.49-2.49,2.49
			C230.44,168.02,229.32,166.9,229.32,165.53"/>
		<path class="st4" d="M229.32,165.53c0-1.37,1.12-2.49,2.48-2.49c1.37,0,2.49,1.12,2.49,2.49s-1.12,2.49-2.49,2.49
			C230.44,168.02,229.32,166.9,229.32,165.53"/>
	</g>
	<g style="clip-path:url(#SVGID_00000005948762674480632630000012708751283822779583_);">
		<path class="st3" d="M169.52,136.28c0-1.37,1.12-2.49,2.49-2.49c1.37,0,2.49,1.12,2.49,2.49s-1.12,2.49-2.49,2.49
			C170.64,138.77,169.52,137.65,169.52,136.28"/>
		<path class="st4" d="M169.52,136.28c0-1.37,1.12-2.49,2.49-2.49c1.37,0,2.49,1.12,2.49,2.49s-1.12,2.49-2.49,2.49
			C170.64,138.77,169.52,137.65,169.52,136.28"/>
	</g>
	<g style="clip-path:url(#SVGID_00000005948762674480632630000012708751283822779583_);">
		<path class="st3" d="M213.12,186.56c0-1.37,1.12-2.49,2.49-2.49s2.49,1.12,2.49,2.49s-1.12,2.49-2.49,2.49
			S213.12,187.93,213.12,186.56"/>
		<path class="st4" d="M213.12,186.56c0-1.37,1.12-2.49,2.49-2.49s2.49,1.12,2.49,2.49s-1.12,2.49-2.49,2.49
			S213.12,187.93,213.12,186.56"/>
	</g>
	<g style="clip-path:url(#SVGID_00000005948762674480632630000012708751283822779583_);">
		<path class="st3" d="M164.13,106.9c0-1.37,1.12-2.49,2.49-2.49c1.37,0,2.49,1.12,2.49,2.49c0,1.37-1.12,2.49-2.49,2.49
			C165.25,109.39,164.13,108.27,164.13,106.9"/>
		<path class="st4" d="M164.13,106.9c0-1.37,1.12-2.49,2.49-2.49c1.37,0,2.49,1.12,2.49,2.49c0,1.37-1.12,2.49-2.49,2.49
			C165.25,109.39,164.13,108.27,164.13,106.9"/>
	</g>
	<g style="clip-path:url(#SVGID_00000005948762674480632630000012708751283822779583_);">
		<path class="st3" d="M229.62,174.83c0-1.37,1.12-2.49,2.49-2.49s2.49,1.12,2.49,2.49c0,1.37-1.12,2.49-2.49,2.49
			S229.62,176.2,229.62,174.83"/>
		<path class="st4" d="M229.62,174.83c0-1.37,1.12-2.49,2.49-2.49s2.49,1.12,2.49,2.49c0,1.37-1.12,2.49-2.49,2.49
			S229.62,176.2,229.62,174.83"/>
	</g>
	<g style="clip-path:url(#SVGID_00000005948762674480632630000012708751283822779583_);">
		<path class="st3" d="M78.27,166.25c0-1.37,1.12-2.49,2.49-2.49c1.37,0,2.49,1.12,2.49,2.49s-1.12,2.49-2.49,2.49
			C79.39,168.74,78.27,167.62,78.27,166.25"/>
		<path class="st4" d="M78.27,166.25c0-1.37,1.12-2.49,2.49-2.49c1.37,0,2.49,1.12,2.49,2.49s-1.12,2.49-2.49,2.49
			C79.39,168.74,78.27,167.62,78.27,166.25"/>
	</g>
	<g style="clip-path:url(#SVGID_00000005948762674480632630000012708751283822779583_);">
		<path class="st5" d="M178.96,166.94c0-1.37,1.12-2.49,2.49-2.49c1.36,0,2.48,1.12,2.48,2.49s-1.12,2.49-2.48,2.49
			C180.08,169.43,178.96,168.31,178.96,166.94"/>
		<path class="st4" d="M178.96,166.94c0-1.37,1.12-2.49,2.49-2.49c1.36,0,2.48,1.12,2.48,2.49s-1.12,2.49-2.48,2.49
			C180.08,169.43,178.96,168.31,178.96,166.94"/>
	</g>
	<g style="clip-path:url(#SVGID_00000005948762674480632630000012708751283822779583_);">
		<path class="st3" d="M156.3,118.06c0-1.37,1.12-2.49,2.49-2.49c1.37,0,2.49,1.12,2.49,2.49s-1.12,2.49-2.49,2.49
			C157.42,120.55,156.3,119.43,156.3,118.06"/>
		<path class="st4" d="M156.3,118.06c0-1.37,1.12-2.49,2.49-2.49c1.37,0,2.49,1.12,2.49,2.49s-1.12,2.49-2.49,2.49
			C157.42,120.55,156.3,119.43,156.3,118.06"/>
	</g>
	<g style="clip-path:url(#SVGID_00000005948762674480632630000012708751283822779583_);">
		<path class="st5" d="M61.06,92.09c0-1.37,1.12-2.49,2.49-2.49s2.49,1.12,2.49,2.49c0,1.36-1.12,2.48-2.49,2.48
			S61.06,93.45,61.06,92.09"/>
		<path class="st4" d="M61.06,92.09c0-1.37,1.12-2.49,2.49-2.49s2.49,1.12,2.49,2.49c0,1.36-1.12,2.48-2.49,2.48
			S61.06,93.45,61.06,92.09"/>
	</g>
	<g style="clip-path:url(#SVGID_00000005948762674480632630000012708751283822779583_);">
		<path class="st3" d="M199.3,143.62c0-1.37,1.12-2.49,2.49-2.49c1.36,0,2.48,1.12,2.48,2.49c0,1.37-1.12,2.49-2.48,2.49
			C200.42,146.11,199.3,144.99,199.3,143.62"/>
		<path class="st4" d="M199.3,143.62c0-1.37,1.12-2.49,2.49-2.49c1.36,0,2.48,1.12,2.48,2.49c0,1.37-1.12,2.49-2.48,2.49
			C200.42,146.11,199.3,144.99,199.3,143.62"/>
	</g>
	<g style="clip-path:url(#SVGID_00000005948762674480632630000012708751283822779583_);">
		<path class="st5" d="M127.23,195.56c0-1.37,1.12-2.49,2.49-2.49s2.49,1.12,2.49,2.49s-1.12,2.49-2.49,2.49
			S127.23,196.93,127.23,195.56"/>
		<path class="st4" d="M127.23,195.56c0-1.37,1.12-2.49,2.49-2.49s2.49,1.12,2.49,2.49s-1.12,2.49-2.49,2.49
			S127.23,196.93,127.23,195.56"/>
	</g>
	<g style="clip-path:url(#SVGID_00000005948762674480632630000012708751283822779583_);">
		<path class="st3" d="M190.05,123.36c0-1.37,1.12-2.49,2.49-2.49c1.37,0,2.49,1.12,2.49,2.49c0,1.36-1.12,2.48-2.49,2.48
			C191.17,125.84,190.05,124.72,190.05,123.36"/>
		<path class="st4" d="M190.05,123.36c0-1.37,1.12-2.49,2.49-2.49c1.37,0,2.49,1.12,2.49,2.49c0,1.36-1.12,2.48-2.49,2.48
			C191.17,125.84,190.05,124.72,190.05,123.36"/>
	</g>
	<g style="clip-path:url(#SVGID_00000005948762674480632630000012708751283822779583_);">
		<path class="st3" d="M161.94,101.38c0-1.37,1.12-2.49,2.49-2.49c1.37,0,2.49,1.12,2.49,2.49c0,1.36-1.12,2.48-2.49,2.48
			C163.06,103.86,161.94,102.74,161.94,101.38"/>
		<path class="st4" d="M161.94,101.38c0-1.37,1.12-2.49,2.49-2.49c1.37,0,2.49,1.12,2.49,2.49c0,1.36-1.12,2.48-2.49,2.48
			C163.06,103.86,161.94,102.74,161.94,101.38"/>
	</g>
	<g style="clip-path:url(#SVGID_00000005948762674480632630000012708751283822779583_);">
		<path class="st5" d="M258.05,111.33c0-1.37,1.11-2.48,2.48-2.48s2.49,1.11,2.49,2.48s-1.12,2.49-2.49,2.49
			S258.05,112.7,258.05,111.33"/>
		<path class="st4" d="M258.05,111.33c0-1.37,1.11-2.48,2.48-2.48s2.49,1.11,2.49,2.48s-1.12,2.49-2.49,2.49
			S258.05,112.7,258.05,111.33"/>
	</g>
	<g style="clip-path:url(#SVGID_00000005948762674480632630000012708751283822779583_);">
		<path class="st5" d="M192.45,114.92c0-1.36,1.12-2.48,2.49-2.48s2.49,1.12,2.49,2.48c0,1.37-1.12,2.49-2.49,2.49
			S192.45,116.29,192.45,114.92"/>
		<path class="st4" d="M192.45,114.92c0-1.36,1.12-2.48,2.49-2.48s2.49,1.12,2.49,2.48c0,1.37-1.12,2.49-2.49,2.49
			S192.45,116.29,192.45,114.92"/>
	</g>
	<g style="clip-path:url(#SVGID_00000005948762674480632630000012708751283822779583_);">
		<path class="st3" d="M232.09,244.25c0-1.37,1.12-2.49,2.49-2.49s2.49,1.12,2.49,2.49c0,1.36-1.12,2.48-2.49,2.48
			S232.09,245.61,232.09,244.25"/>
		<path class="st4" d="M232.09,244.25c0-1.37,1.12-2.49,2.49-2.49s2.49,1.12,2.49,2.49c0,1.36-1.12,2.48-2.49,2.48
			S232.09,245.61,232.09,244.25"/>
	</g>
	<g style="clip-path:url(#SVGID_00000005948762674480632630000012708751283822779583_);">
		<path class="st5" d="M131.95,171.33c0-1.37,1.12-2.49,2.49-2.49c1.36,0,2.48,1.12,2.48,2.49c0,1.37-1.12,2.49-2.48,2.49
			C133.07,173.82,131.95,172.7,131.95,171.33"/>
		<path class="st4" d="M131.95,171.33c0-1.37,1.12-2.49,2.49-2.49c1.36,0,2.48,1.12,2.48,2.49c0,1.37-1.12,2.49-2.48,2.49
			C133.07,173.82,131.95,172.7,131.95,171.33"/>
	</g>
	<g style="clip-path:url(#SVGID_00000005948762674480632630000012708751283822779583_);">
		<path class="st3" d="M114.66,145.58c0-1.37,1.12-2.49,2.49-2.49c1.36,0,2.48,1.12,2.48,2.49s-1.12,2.49-2.48,2.49
			C115.78,148.07,114.66,146.95,114.66,145.58"/>
		<path class="st4" d="M114.66,145.58c0-1.37,1.12-2.49,2.49-2.49c1.36,0,2.48,1.12,2.48,2.49s-1.12,2.49-2.48,2.49
			C115.78,148.07,114.66,146.95,114.66,145.58"/>
	</g>
	<g style="clip-path:url(#SVGID_00000005948762674480632630000012708751283822779583_);">
		<path class="st3" d="M167.05,168.1c0-1.36,1.12-2.48,2.49-2.48c1.36,0,2.48,1.12,2.48,2.48c0,1.37-1.12,2.49-2.48,2.49
			C168.17,170.59,167.05,169.47,167.05,168.1"/>
		<path class="st4" d="M167.05,168.1c0-1.36,1.12-2.48,2.49-2.48c1.36,0,2.48,1.12,2.48,2.48c0,1.37-1.12,2.49-2.48,2.49
			C168.17,170.59,167.05,169.47,167.05,168.1"/>
	</g>
	<g style="clip-path:url(#SVGID_00000005948762674480632630000012708751283822779583_);">
		<path class="st5" d="M171.73,106.77c0-1.37,1.12-2.49,2.49-2.49s2.49,1.12,2.49,2.49c0,1.37-1.12,2.49-2.49,2.49
			S171.73,108.14,171.73,106.77"/>
		<path class="st4" d="M171.73,106.77c0-1.37,1.12-2.49,2.49-2.49s2.49,1.12,2.49,2.49c0,1.37-1.12,2.49-2.49,2.49
			S171.73,108.14,171.73,106.77"/>
	</g>
	<g style="clip-path:url(#SVGID_00000005948762674480632630000012708751283822779583_);">
		<path class="st3" d="M258.05,67.37c0-1.36,1.12-2.48,2.49-2.48s2.49,1.12,2.49,2.48c0,1.37-1.12,2.49-2.49,2.49
			S258.05,68.74,258.05,67.37"/>
		<path class="st4" d="M258.05,67.37c0-1.36,1.12-2.48,2.49-2.48s2.49,1.12,2.49,2.48c0,1.37-1.12,2.49-2.49,2.49
			S258.05,68.74,258.05,67.37"/>
	</g>
	<g style="clip-path:url(#SVGID_00000005948762674480632630000012708751283822779583_);">
		<path class="st3" d="M156.15,76.34c0-1.37,1.12-2.49,2.49-2.49s2.49,1.12,2.49,2.49c0,1.36-1.12,2.48-2.49,2.48
			S156.15,77.7,156.15,76.34"/>
		<path class="st4" d="M156.15,76.34c0-1.37,1.12-2.49,2.49-2.49s2.49,1.12,2.49,2.49c0,1.36-1.12,2.48-2.49,2.48
			S156.15,77.7,156.15,76.34"/>
	</g>
	<g style="clip-path:url(#SVGID_00000005948762674480632630000012708751283822779583_);">
		<path class="st3" d="M139.08,95.7c0-1.37,1.12-2.49,2.49-2.49c1.37,0,2.49,1.12,2.49,2.49c0,1.37-1.12,2.49-2.49,2.49
			C140.2,98.19,139.08,97.07,139.08,95.7"/>
		<path class="st4" d="M139.08,95.7c0-1.37,1.12-2.49,2.49-2.49c1.37,0,2.49,1.12,2.49,2.49c0,1.37-1.12,2.49-2.49,2.49
			C140.2,98.19,139.08,97.07,139.08,95.7"/>
	</g>
	<g style="clip-path:url(#SVGID_00000005948762674480632630000012708751283822779583_);">
		<path class="st3" d="M200.07,119.67c0-1.37,1.12-2.49,2.49-2.49c1.36,0,2.48,1.12,2.48,2.49s-1.12,2.49-2.48,2.49
			C201.19,122.16,200.07,121.04,200.07,119.67"/>
		<path class="st4" d="M200.07,119.67c0-1.37,1.12-2.49,2.49-2.49c1.36,0,2.48,1.12,2.48,2.49s-1.12,2.49-2.48,2.49
			C201.19,122.16,200.07,121.04,200.07,119.67"/>
	</g>
	<g style="clip-path:url(#SVGID_00000005948762674480632630000012708751283822779583_);">
		<path class="st3" d="M181.31,137.55c0-1.37,1.12-2.49,2.49-2.49c1.37,0,2.49,1.12,2.49,2.49c0,1.37-1.12,2.49-2.49,2.49
			C182.43,140.04,181.31,138.92,181.31,137.55"/>
		<path class="st4" d="M181.31,137.55c0-1.37,1.12-2.49,2.49-2.49c1.37,0,2.49,1.12,2.49,2.49c0,1.37-1.12,2.49-2.49,2.49
			C182.43,140.04,181.31,138.92,181.31,137.55"/>
	</g>
	<path style="clip-path:url(#SVGID_00000005948762674480632630000012708751283822779583_);fill:#6F0641;" d="M171.95,115.99
		c0-2.54,2.08-4.62,4.62-4.62c2.55,0,4.63,2.08,4.63,4.62c0,2.54-2.08,4.62-4.63,4.62C174.03,120.61,171.95,118.53,171.95,115.99"/>
	
		<path style="clip-path:url(#SVGID_00000005948762674480632630000012708751283822779583_);fill:none;stroke:#000000;stroke-width:0.71;stroke-linecap:round;stroke-linejoin:round;stroke-miterlimit:10;" d="
		M171.95,115.99c0-2.54,2.08-4.62,4.62-4.62c2.55,0,4.63,2.08,4.63,4.62c0,2.54-2.08,4.62-4.63,4.62
		C174.03,120.61,171.95,118.53,171.95,115.99"/>
	<path style="clip-path:url(#SVGID_00000005948762674480632630000012708751283822779583_);fill:#7223F0;" d="M152.38,116.45
		c0-2.54,2.08-4.62,4.62-4.62s4.62,2.08,4.62,4.62c0,2.54-2.08,4.62-4.62,4.62S152.38,118.99,152.38,116.45"/>
	
		<path style="clip-path:url(#SVGID_00000005948762674480632630000012708751283822779583_);fill:none;stroke:#000000;stroke-width:0.71;stroke-linecap:round;stroke-linejoin:round;stroke-miterlimit:10;" d="
		M152.38,116.45c0-2.54,2.08-4.62,4.62-4.62s4.62,2.08,4.62,4.62c0,2.54-2.08,4.62-4.62,4.62S152.38,118.99,152.38,116.45"/>
	
		<line style="clip-path:url(#SVGID_00000005948762674480632630000012708751283822779583_);fill:none;stroke:#000000;stroke-width:0.71;stroke-linecap:round;stroke-linejoin:round;stroke-miterlimit:10;" x1="171.95" y1="120.61" x2="181.2" y2="111.37"/>
	
		<line style="clip-path:url(#SVGID_00000005948762674480632630000012708751283822779583_);fill:none;stroke:#000000;stroke-width:0.71;stroke-linecap:round;stroke-linejoin:round;stroke-miterlimit:10;" x1="171.95" y1="111.37" x2="181.2" y2="120.61"/>
	
		<line style="clip-path:url(#SVGID_00000005948762674480632630000012708751283822779583_);fill:none;stroke:#000000;stroke-width:0.71;stroke-linecap:round;stroke-linejoin:round;stroke-miterlimit:10;" x1="170.04" y1="115.99" x2="183.11" y2="115.99"/>
	
		<line style="clip-path:url(#SVGID_00000005948762674480632630000012708751283822779583_);fill:none;stroke:#000000;stroke-width:0.71;stroke-linecap:round;stroke-linejoin:round;stroke-miterlimit:10;" x1="176.57" y1="122.53" x2="176.57" y2="109.46"/>
	
		<line style="clip-path:url(#SVGID_00000005948762674480632630000012708751283822779583_);fill:none;stroke:#000000;stroke-width:0.71;stroke-linecap:round;stroke-linejoin:round;stroke-miterlimit:10;" x1="152.38" y1="121.07" x2="161.62" y2="111.83"/>
	
		<line style="clip-path:url(#SVGID_00000005948762674480632630000012708751283822779583_);fill:none;stroke:#000000;stroke-width:0.71;stroke-linecap:round;stroke-linejoin:round;stroke-miterlimit:10;" x1="152.38" y1="111.83" x2="161.62" y2="121.07"/>
	
		<line style="clip-path:url(#SVGID_00000005948762674480632630000012708751283822779583_);fill:none;stroke:#000000;stroke-width:0.71;stroke-linecap:round;stroke-linejoin:round;stroke-miterlimit:10;" x1="150.46" y1="116.45" x2="163.54" y2="116.45"/>
	
		<line style="clip-path:url(#SVGID_00000005948762674480632630000012708751283822779583_);fill:none;stroke:#000000;stroke-width:0.71;stroke-linecap:round;stroke-linejoin:round;stroke-miterlimit:10;" x1="157" y1="122.99" x2="157" y2="109.91"/>
	
		<line style="clip-path:url(#SVGID_00000005948762674480632630000012708751283822779583_);fill:none;stroke:#0000FF;stroke-width:1.07;stroke-linejoin:round;stroke-miterlimit:10;" x1="163.62" y1="116.3" x2="191.29" y2="108.21"/>
	
		<polyline style="clip-path:url(#SVGID_00000005948762674480632630000012708751283822779583_);fill:none;stroke:#0000FF;stroke-width:1.07;stroke-linejoin:round;stroke-miterlimit:10;" points="
		186.39,113.33 191.29,108.21 184.4,106.53 	"/>
	
		<line style="clip-path:url(#SVGID_00000005948762674480632630000012708751283822779583_);fill:none;stroke:#0000FF;stroke-width:1.07;stroke-linejoin:round;stroke-miterlimit:10;" x1="163.62" y1="116.3" x2="177.19" y2="141.42"/>
	
		<polyline style="clip-path:url(#SVGID_00000005948762674480632630000012708751283822779583_);fill:none;stroke:#0000FF;stroke-width:1.07;stroke-linejoin:round;stroke-miterlimit:10;" points="
		171.16,137.7 177.19,141.42 177.39,134.33 	"/>
	
		<line style="clip-path:url(#SVGID_00000005948762674480632630000012708751283822779583_);fill:none;stroke:#0000FF;stroke-width:1.07;stroke-linejoin:round;stroke-miterlimit:10;" x1="163.62" y1="116.3" x2="184.46" y2="125.69"/>
	
		<polyline style="clip-path:url(#SVGID_00000005948762674480632630000012708751283822779583_);fill:none;stroke:#0000FF;stroke-width:1.07;stroke-linejoin:round;stroke-miterlimit:10;" points="
		177.41,126.4 184.46,125.69 180.32,119.94 	"/>
	
		<line style="clip-path:url(#SVGID_00000005948762674480632630000012708751283822779583_);fill:none;stroke:#0000FF;stroke-width:1.07;stroke-linejoin:round;stroke-miterlimit:10;" x1="163.62" y1="116.3" x2="142.62" y2="137.98"/>
	
		<polyline style="clip-path:url(#SVGID_00000005948762674480632630000012708751283822779583_);fill:none;stroke:#0000FF;stroke-width:1.07;stroke-linejoin:round;stroke-miterlimit:10;" points="
		144.34,131.11 142.62,137.98 149.43,136.04 	"/>
	
		<line style="clip-path:url(#SVGID_00000005948762674480632630000012708751283822779583_);fill:none;stroke:#0000FF;stroke-width:1.07;stroke-linejoin:round;stroke-miterlimit:10;" x1="163.62" y1="116.3" x2="172.29" y2="137.73"/>
	
		<polyline style="clip-path:url(#SVGID_00000005948762674480632630000012708751283822779583_);fill:none;stroke:#0000FF;stroke-width:1.07;stroke-linejoin:round;stroke-miterlimit:10;" points="
		166.7,133.37 172.29,137.73 173.27,130.71 	"/>
	<g style="clip-path:url(#SVGID_00000005948762674480632630000012708751283822779583_);">
		<text transform="matrix(1 0 0 1 192.8169 108.793)" class="st10 st11 st12">outcrop</text>
	</g>
	<g style="clip-path:url(#SVGID_00000005948762674480632630000012708751283822779583_);">
		<text transform="matrix(1 0 0 1 177.2649 148.5434)"><tspan x="0" y="0" class="st10 st11 st12">r</tspan><tspan x="3.82" y="0" class="st10 st11 st12">ugosity</tspan></text>
	</g>
	<g style="clip-path:url(#SVGID_00000005948762674480632630000012708751283822779583_);">
		<text transform="matrix(1 0 0 1 186.9376 132.6737)"><tspan x="0" y="0" class="st10 st11 st12">el</tspan><tspan x="8.56" y="0" class="st10 st11 st12">e</tspan><tspan x="14.35" y="0" class="st10 st11 st12">v</tspan><tspan x="19.58" y="0" class="st10 st11 st12">ation</tspan></text>
	</g>
	<g style="clip-path:url(#SVGID_00000005948762674480632630000012708751283822779583_);">
		<text transform="matrix(1 0 0 1 96.2816 144.907)"><tspan x="0" y="0" class="st10 st11 st12">o</tspan><tspan x="5.95" y="0" class="st10 st11 st12">v</tspan><tspan x="11.18" y="0" class="st10 st11 st12">erhang</tspan></text>
	</g>
	<g style="clip-path:url(#SVGID_00000005948762674480632630000012708751283822779583_);">
		<text transform="matrix(1 0 0 1 166.4404 146.6188)" class="st10 st11 st12">z</text>
	</g>
</g>
<text transform="matrix(1 0 0 1 26.29 189.9297)" class="st13 st11 st14">−2</text>
<text transform="matrix(1 0 0 1 29.79 118.4502)" class="st13 st11 st14">0</text>
<text transform="matrix(1 0 0 1 29.79 46.9702)" class="st13 st11 st14">2</text>
<text transform="matrix(1 0 0 1 52.9902 264.0801)" class="st13 st11 st14">−3</text>
<text transform="matrix(1 0 0 1 88.7202 264.0801)" class="st13 st11 st14">−2</text>
<text transform="matrix(1 0 0 1 124.46 264.0801)" class="st13 st11 st14">−1</text>
<text transform="matrix(1 0 0 1 161.9502 264.0801)" class="st13 st11 st14">0</text>
<text transform="matrix(1 0 0 1 197.6904 264.0801)" class="st13 st11 st14">1</text>
<text transform="matrix(1 0 0 1 233.4297 264.0801)" class="st13 st11 st14">2</text>
<text transform="matrix(1 0 0 1 269.1699 264.0801)" class="st13 st11 st14">3</text>
<text transform="matrix(1 0 0 1 140.71 275.3203)" class="st11 st15">MDS1</text>
<text transform="matrix(0 -1 1 0 21.3504 152.1899)" class="st11 st15">MDS2</text>
<text transform="matrix(1 0 0 1 287.5801 122.1201)"><tspan x="0" y="0" class="st11 st15 st16">T</tspan><tspan x="4.92" y="0" class="st11 st15">axa</tspan></text>
<g>
	<path class="st5" d="M293.73,136.84c0-1.37,1.12-2.49,2.49-2.49c1.36,0,2.48,1.12,2.48,2.49c0,1.37-1.12,2.48-2.48,2.48
		C294.85,139.32,293.73,138.21,293.73,136.84"/>
	<path class="st4" d="M293.73,136.84c0-1.37,1.12-2.49,2.49-2.49c1.36,0,2.48,1.12,2.48,2.49c0,1.37-1.12,2.48-2.48,2.48
		C294.85,139.32,293.73,138.21,293.73,136.84"/>
</g>
<path class="st17" d="M291.59,136.84c0-2.55,2.08-4.63,4.63-4.63c2.54,0,4.62,2.08,4.62,4.63c0,2.54-2.08,4.62-4.62,4.62
	C293.67,141.46,291.59,139.38,291.59,136.84"/>
<path class="st18" d="M291.59,136.84c0-2.55,2.08-4.63,4.63-4.63c2.54,0,4.62,2.08,4.62,4.63c0,2.54-2.08,4.62-4.62,4.62
	C293.67,141.46,291.59,139.38,291.59,136.84"/>
<g>
	<path class="st3" d="M293.73,154.12c0-1.37,1.12-2.49,2.49-2.49c1.36,0,2.48,1.12,2.48,2.49s-1.12,2.48-2.48,2.48
		C294.85,156.6,293.73,155.49,293.73,154.12"/>
	<path class="st4" d="M293.73,154.12c0-1.37,1.12-2.49,2.49-2.49c1.36,0,2.48,1.12,2.48,2.49s-1.12,2.48-2.48,2.48
		C294.85,156.6,293.73,155.49,293.73,154.12"/>
</g>
<path class="st19" d="M291.59,154.12c0-2.55,2.08-4.63,4.63-4.63c2.54,0,4.62,2.08,4.62,4.63c0,2.54-2.08,4.62-4.62,4.62
	C293.67,158.74,291.59,156.66,291.59,154.12"/>
<path class="st18" d="M291.59,154.12c0-2.55,2.08-4.63,4.63-4.63c2.54,0,4.62,2.08,4.62,4.63c0,2.54-2.08,4.62-4.62,4.62
	C293.67,158.74,291.59,156.66,291.59,154.12"/>
<text transform="matrix(1 0 0 1 309.8398 138.9902)" class="st11 st14">AL1</text>
<text transform="matrix(1 0 0 1 309.8398 156.2695)" class="st11 st14">AL2</text>
<text transform="matrix(1 0 0 1 38.0601 13.6299)" class="st11 st20">Stress:  0.111</text>
</svg>
